<mxfile host="app.diagrams.net" agent="Mozilla/5.0 (Macintosh; Intel Mac OS X 10_15_7) AppleWebKit/605.1.15 (KHTML, like Gecko) Version/18.2 Safari/605.1.15" version="25.0.3">
  <diagram name="Page-1" id="4wlm-RkGhrcD2O0wvJbE">
    <mxGraphModel dx="1343" dy="1112" grid="1" gridSize="10" guides="1" tooltips="1" connect="1" arrows="1" fold="1" page="1" pageScale="1" pageWidth="1169" pageHeight="827" math="0" shadow="0">
      <root>
        <mxCell id="0" />
        <mxCell id="1" parent="0" />
        <mxCell id="IB-V-Ww0UN4GLWUFu5-M-2" value="Inventory Data Table" style="shape=table;startSize=30;container=1;collapsible=0;childLayout=tableLayout;strokeColor=default;fontSize=16;" parent="1" vertex="1">
          <mxGeometry x="60" y="200" width="670" height="176" as="geometry" />
        </mxCell>
        <mxCell id="IB-V-Ww0UN4GLWUFu5-M-3" value="" style="shape=tableRow;horizontal=0;startSize=0;swimlaneHead=0;swimlaneBody=0;strokeColor=inherit;top=0;left=0;bottom=0;right=0;collapsible=0;dropTarget=0;fillColor=none;points=[[0,0.5],[1,0.5]];portConstraint=eastwest;fontSize=16;" parent="IB-V-Ww0UN4GLWUFu5-M-2" vertex="1">
          <mxGeometry y="30" width="670" height="73" as="geometry" />
        </mxCell>
        <mxCell id="IB-V-Ww0UN4GLWUFu5-M-4" value="Code" style="shape=partialRectangle;html=1;whiteSpace=wrap;connectable=0;strokeColor=inherit;overflow=hidden;fillColor=none;top=0;left=0;bottom=0;right=0;pointerEvents=1;fontSize=16;" parent="IB-V-Ww0UN4GLWUFu5-M-3" vertex="1">
          <mxGeometry width="70" height="73" as="geometry">
            <mxRectangle width="70" height="73" as="alternateBounds" />
          </mxGeometry>
        </mxCell>
        <mxCell id="IB-V-Ww0UN4GLWUFu5-M-5" value="Description" style="shape=partialRectangle;html=1;whiteSpace=wrap;connectable=0;strokeColor=inherit;overflow=hidden;fillColor=none;top=0;left=0;bottom=0;right=0;pointerEvents=1;fontSize=16;" parent="IB-V-Ww0UN4GLWUFu5-M-3" vertex="1">
          <mxGeometry x="70" width="90" height="73" as="geometry">
            <mxRectangle width="90" height="73" as="alternateBounds" />
          </mxGeometry>
        </mxCell>
        <mxCell id="IB-V-Ww0UN4GLWUFu5-M-6" value="Type" style="shape=partialRectangle;html=1;whiteSpace=wrap;connectable=0;strokeColor=inherit;overflow=hidden;fillColor=none;top=0;left=0;bottom=0;right=0;pointerEvents=1;fontSize=16;" parent="IB-V-Ww0UN4GLWUFu5-M-3" vertex="1">
          <mxGeometry x="160" width="60" height="73" as="geometry">
            <mxRectangle width="60" height="73" as="alternateBounds" />
          </mxGeometry>
        </mxCell>
        <mxCell id="IB-V-Ww0UN4GLWUFu5-M-21" value="Category" style="shape=partialRectangle;html=1;whiteSpace=wrap;connectable=0;strokeColor=inherit;overflow=hidden;fillColor=none;top=0;left=0;bottom=0;right=0;pointerEvents=1;fontSize=16;" parent="IB-V-Ww0UN4GLWUFu5-M-3" vertex="1">
          <mxGeometry x="220" width="80" height="73" as="geometry">
            <mxRectangle width="80" height="73" as="alternateBounds" />
          </mxGeometry>
        </mxCell>
        <mxCell id="IB-V-Ww0UN4GLWUFu5-M-18" value="Serial" style="shape=partialRectangle;html=1;whiteSpace=wrap;connectable=0;strokeColor=inherit;overflow=hidden;fillColor=none;top=0;left=0;bottom=0;right=0;pointerEvents=1;fontSize=16;" parent="IB-V-Ww0UN4GLWUFu5-M-3" vertex="1">
          <mxGeometry x="300" width="60" height="73" as="geometry">
            <mxRectangle width="60" height="73" as="alternateBounds" />
          </mxGeometry>
        </mxCell>
        <mxCell id="IB-V-Ww0UN4GLWUFu5-M-15" value="Location/&lt;div&gt;Assignment&lt;/div&gt;" style="shape=partialRectangle;html=1;whiteSpace=wrap;connectable=0;strokeColor=inherit;overflow=hidden;fillColor=none;top=0;left=0;bottom=0;right=0;pointerEvents=1;fontSize=16;" parent="IB-V-Ww0UN4GLWUFu5-M-3" vertex="1">
          <mxGeometry x="360" width="90" height="73" as="geometry">
            <mxRectangle width="90" height="73" as="alternateBounds" />
          </mxGeometry>
        </mxCell>
        <mxCell id="IB-V-Ww0UN4GLWUFu5-M-24" value="Date Purchased" style="shape=partialRectangle;html=1;whiteSpace=wrap;connectable=0;strokeColor=inherit;overflow=hidden;fillColor=none;top=0;left=0;bottom=0;right=0;pointerEvents=1;fontSize=16;" parent="IB-V-Ww0UN4GLWUFu5-M-3" vertex="1">
          <mxGeometry x="450" width="80" height="73" as="geometry">
            <mxRectangle width="80" height="73" as="alternateBounds" />
          </mxGeometry>
        </mxCell>
        <mxCell id="IB-V-Ww0UN4GLWUFu5-M-27" value="Last Updated" style="shape=partialRectangle;html=1;whiteSpace=wrap;connectable=0;strokeColor=inherit;overflow=hidden;fillColor=none;top=0;left=0;bottom=0;right=0;pointerEvents=1;fontSize=16;" parent="IB-V-Ww0UN4GLWUFu5-M-3" vertex="1">
          <mxGeometry x="530" width="80" height="73" as="geometry">
            <mxRectangle width="80" height="73" as="alternateBounds" />
          </mxGeometry>
        </mxCell>
        <mxCell id="IB-V-Ww0UN4GLWUFu5-M-30" value="Action" style="shape=partialRectangle;html=1;whiteSpace=wrap;connectable=0;strokeColor=inherit;overflow=hidden;fillColor=none;top=0;left=0;bottom=0;right=0;pointerEvents=1;fontSize=16;" parent="IB-V-Ww0UN4GLWUFu5-M-3" vertex="1">
          <mxGeometry x="610" width="60" height="73" as="geometry">
            <mxRectangle width="60" height="73" as="alternateBounds" />
          </mxGeometry>
        </mxCell>
        <mxCell id="IB-V-Ww0UN4GLWUFu5-M-33" style="shape=tableRow;horizontal=0;startSize=0;swimlaneHead=0;swimlaneBody=0;strokeColor=inherit;top=0;left=0;bottom=0;right=0;collapsible=0;dropTarget=0;fillColor=none;points=[[0,0.5],[1,0.5]];portConstraint=eastwest;fontSize=16;" parent="IB-V-Ww0UN4GLWUFu5-M-2" vertex="1">
          <mxGeometry y="103" width="670" height="73" as="geometry" />
        </mxCell>
        <mxCell id="IB-V-Ww0UN4GLWUFu5-M-34" style="shape=partialRectangle;html=1;whiteSpace=wrap;connectable=0;strokeColor=inherit;overflow=hidden;fillColor=none;top=0;left=0;bottom=0;right=0;pointerEvents=1;fontSize=16;" parent="IB-V-Ww0UN4GLWUFu5-M-33" vertex="1">
          <mxGeometry width="70" height="73" as="geometry">
            <mxRectangle width="70" height="73" as="alternateBounds" />
          </mxGeometry>
        </mxCell>
        <mxCell id="IB-V-Ww0UN4GLWUFu5-M-35" style="shape=partialRectangle;html=1;whiteSpace=wrap;connectable=0;strokeColor=inherit;overflow=hidden;fillColor=none;top=0;left=0;bottom=0;right=0;pointerEvents=1;fontSize=16;" parent="IB-V-Ww0UN4GLWUFu5-M-33" vertex="1">
          <mxGeometry x="70" width="90" height="73" as="geometry">
            <mxRectangle width="90" height="73" as="alternateBounds" />
          </mxGeometry>
        </mxCell>
        <mxCell id="IB-V-Ww0UN4GLWUFu5-M-36" style="shape=partialRectangle;html=1;whiteSpace=wrap;connectable=0;strokeColor=inherit;overflow=hidden;fillColor=none;top=0;left=0;bottom=0;right=0;pointerEvents=1;fontSize=16;" parent="IB-V-Ww0UN4GLWUFu5-M-33" vertex="1">
          <mxGeometry x="160" width="60" height="73" as="geometry">
            <mxRectangle width="60" height="73" as="alternateBounds" />
          </mxGeometry>
        </mxCell>
        <mxCell id="IB-V-Ww0UN4GLWUFu5-M-37" style="shape=partialRectangle;html=1;whiteSpace=wrap;connectable=0;strokeColor=inherit;overflow=hidden;fillColor=none;top=0;left=0;bottom=0;right=0;pointerEvents=1;fontSize=16;" parent="IB-V-Ww0UN4GLWUFu5-M-33" vertex="1">
          <mxGeometry x="220" width="80" height="73" as="geometry">
            <mxRectangle width="80" height="73" as="alternateBounds" />
          </mxGeometry>
        </mxCell>
        <mxCell id="IB-V-Ww0UN4GLWUFu5-M-38" style="shape=partialRectangle;html=1;whiteSpace=wrap;connectable=0;strokeColor=inherit;overflow=hidden;fillColor=none;top=0;left=0;bottom=0;right=0;pointerEvents=1;fontSize=16;" parent="IB-V-Ww0UN4GLWUFu5-M-33" vertex="1">
          <mxGeometry x="300" width="60" height="73" as="geometry">
            <mxRectangle width="60" height="73" as="alternateBounds" />
          </mxGeometry>
        </mxCell>
        <mxCell id="IB-V-Ww0UN4GLWUFu5-M-39" style="shape=partialRectangle;html=1;whiteSpace=wrap;connectable=0;strokeColor=inherit;overflow=hidden;fillColor=none;top=0;left=0;bottom=0;right=0;pointerEvents=1;fontSize=16;" parent="IB-V-Ww0UN4GLWUFu5-M-33" vertex="1">
          <mxGeometry x="360" width="90" height="73" as="geometry">
            <mxRectangle width="90" height="73" as="alternateBounds" />
          </mxGeometry>
        </mxCell>
        <mxCell id="IB-V-Ww0UN4GLWUFu5-M-40" style="shape=partialRectangle;html=1;whiteSpace=wrap;connectable=0;strokeColor=inherit;overflow=hidden;fillColor=none;top=0;left=0;bottom=0;right=0;pointerEvents=1;fontSize=16;" parent="IB-V-Ww0UN4GLWUFu5-M-33" vertex="1">
          <mxGeometry x="450" width="80" height="73" as="geometry">
            <mxRectangle width="80" height="73" as="alternateBounds" />
          </mxGeometry>
        </mxCell>
        <mxCell id="IB-V-Ww0UN4GLWUFu5-M-41" style="shape=partialRectangle;html=1;whiteSpace=wrap;connectable=0;strokeColor=inherit;overflow=hidden;fillColor=none;top=0;left=0;bottom=0;right=0;pointerEvents=1;fontSize=16;" parent="IB-V-Ww0UN4GLWUFu5-M-33" vertex="1">
          <mxGeometry x="530" width="80" height="73" as="geometry">
            <mxRectangle width="80" height="73" as="alternateBounds" />
          </mxGeometry>
        </mxCell>
        <mxCell id="IB-V-Ww0UN4GLWUFu5-M-42" value="View/&lt;div&gt;Edit&lt;/div&gt;" style="shape=partialRectangle;html=1;whiteSpace=wrap;connectable=0;strokeColor=inherit;overflow=hidden;fillColor=none;top=0;left=0;bottom=0;right=0;pointerEvents=1;fontSize=16;" parent="IB-V-Ww0UN4GLWUFu5-M-33" vertex="1">
          <mxGeometry x="610" width="60" height="73" as="geometry">
            <mxRectangle width="60" height="73" as="alternateBounds" />
          </mxGeometry>
        </mxCell>
        <mxCell id="IB-V-Ww0UN4GLWUFu5-M-47" value="" style="shape=rect;fillColor=#F6F6F6;strokeColor=none;" parent="1" vertex="1">
          <mxGeometry x="550" y="100" width="190" height="30" as="geometry" />
        </mxCell>
        <mxCell id="IB-V-Ww0UN4GLWUFu5-M-48" value="" style="html=1;strokeWidth=1;shadow=0;dashed=0;shape=mxgraph.ios7ui.marginRect;rx=3;ry=3;rectMargin=5;fillColor=#E4E4E4;strokeColor=none;" parent="IB-V-Ww0UN4GLWUFu5-M-47" vertex="1">
          <mxGeometry width="190" height="30" as="geometry" />
        </mxCell>
        <mxCell id="IB-V-Ww0UN4GLWUFu5-M-49" value="Search" style="shape=mxgraph.ios7.icons.looking_glass;strokeColor=#878789;fillColor=none;fontColor=#878789;labelPosition=right;verticalLabelPosition=middle;align=left;verticalAlign=middle;fontSize=6;fontStyle=0;spacingTop=2;sketch=0;html=1;" parent="IB-V-Ww0UN4GLWUFu5-M-47" vertex="1">
          <mxGeometry x="0.5" y="0.5" width="6" height="6" relative="1" as="geometry">
            <mxPoint x="-17" y="-3" as="offset" />
          </mxGeometry>
        </mxCell>
        <mxCell id="IB-V-Ww0UN4GLWUFu5-M-51" value="Type" style="rounded=1;fillColor=#F1F2F4;strokeColor=none;html=1;whiteSpace=wrap;fontColor=#596780;align=left;fontSize=12;spacingLeft=10;sketch=0;" parent="1" vertex="1">
          <mxGeometry x="70" y="150" width="110" height="33" as="geometry" />
        </mxCell>
        <mxCell id="IB-V-Ww0UN4GLWUFu5-M-52" value="" style="shape=triangle;direction=south;fillColor=#596780;strokeColor=none;html=1;sketch=0;" parent="IB-V-Ww0UN4GLWUFu5-M-51" vertex="1">
          <mxGeometry x="1" y="0.5" width="12" height="6" relative="1" as="geometry">
            <mxPoint x="-20" y="-3" as="offset" />
          </mxGeometry>
        </mxCell>
        <mxCell id="IB-V-Ww0UN4GLWUFu5-M-53" value="Category" style="rounded=1;fillColor=#F1F2F4;strokeColor=none;html=1;whiteSpace=wrap;fontColor=#596780;align=left;fontSize=12;spacingLeft=10;sketch=0;" parent="1" vertex="1">
          <mxGeometry x="190" y="150" width="110" height="33" as="geometry" />
        </mxCell>
        <mxCell id="IB-V-Ww0UN4GLWUFu5-M-54" value="" style="shape=triangle;direction=south;fillColor=#596780;strokeColor=none;html=1;sketch=0;" parent="IB-V-Ww0UN4GLWUFu5-M-53" vertex="1">
          <mxGeometry x="1" y="0.5" width="12" height="6" relative="1" as="geometry">
            <mxPoint x="-20" y="-3" as="offset" />
          </mxGeometry>
        </mxCell>
        <mxCell id="IB-V-Ww0UN4GLWUFu5-M-55" value="Location" style="rounded=1;fillColor=#F1F2F4;strokeColor=none;html=1;whiteSpace=wrap;fontColor=#596780;align=left;fontSize=12;spacingLeft=10;sketch=0;" parent="1" vertex="1">
          <mxGeometry x="310" y="150" width="110" height="33" as="geometry" />
        </mxCell>
        <mxCell id="IB-V-Ww0UN4GLWUFu5-M-56" value="" style="shape=triangle;direction=south;fillColor=#596780;strokeColor=none;html=1;sketch=0;" parent="IB-V-Ww0UN4GLWUFu5-M-55" vertex="1">
          <mxGeometry x="1" y="0.5" width="12" height="6" relative="1" as="geometry">
            <mxPoint x="-20" y="-3" as="offset" />
          </mxGeometry>
        </mxCell>
        <mxCell id="IB-V-Ww0UN4GLWUFu5-M-57" value="Assignment" style="rounded=1;fillColor=#F1F2F4;strokeColor=none;html=1;whiteSpace=wrap;fontColor=#596780;align=left;fontSize=12;spacingLeft=10;sketch=0;" parent="1" vertex="1">
          <mxGeometry x="430" y="150" width="110" height="33" as="geometry" />
        </mxCell>
        <mxCell id="IB-V-Ww0UN4GLWUFu5-M-58" value="" style="shape=triangle;direction=south;fillColor=#596780;strokeColor=none;html=1;sketch=0;" parent="IB-V-Ww0UN4GLWUFu5-M-57" vertex="1">
          <mxGeometry x="1" y="0.5" width="12" height="6" relative="1" as="geometry">
            <mxPoint x="-20" y="-3" as="offset" />
          </mxGeometry>
        </mxCell>
        <mxCell id="IB-V-Ww0UN4GLWUFu5-M-60" value="Today" style="rounded=1;arcSize=9;fillColor=#ffffff;align=left;spacingLeft=5;strokeColor=#0057D8;html=1;strokeWidth=2;fontColor=#253858;fontSize=12" parent="1" vertex="1">
          <mxGeometry x="570" y="150" width="150" height="33" as="geometry" />
        </mxCell>
        <mxCell id="IB-V-Ww0UN4GLWUFu5-M-61" value="" style="shape=mxgraph.gmdl.calendar;fillColor=#253858;strokeColor=none" parent="IB-V-Ww0UN4GLWUFu5-M-60" vertex="1">
          <mxGeometry x="1" y="0.5" width="18" height="18" relative="1" as="geometry">
            <mxPoint x="-29" y="-9" as="offset" />
          </mxGeometry>
        </mxCell>
        <mxCell id="IB-V-Ww0UN4GLWUFu5-M-116" value="Filters" style="text;html=1;align=center;verticalAlign=middle;whiteSpace=wrap;rounded=0;" parent="1" vertex="1">
          <mxGeometry x="480" y="100" width="60" height="30" as="geometry" />
        </mxCell>
        <mxCell id="IB-V-Ww0UN4GLWUFu5-M-117" value="" style="sketch=0;aspect=fixed;pointerEvents=1;shadow=0;dashed=0;html=1;strokeColor=none;labelPosition=center;verticalLabelPosition=bottom;verticalAlign=top;align=center;fillColor=#00188D;shape=mxgraph.mscae.enterprise.filter" parent="1" vertex="1">
          <mxGeometry x="479.45" y="110" width="11.11" height="10" as="geometry" />
        </mxCell>
        <mxCell id="IB-V-Ww0UN4GLWUFu5-M-118" value="Receiving Data Table" style="shape=table;startSize=30;container=1;collapsible=0;childLayout=tableLayout;strokeColor=default;fontSize=16;" parent="1" vertex="1">
          <mxGeometry x="70" y="600" width="610" height="176" as="geometry" />
        </mxCell>
        <mxCell id="IB-V-Ww0UN4GLWUFu5-M-119" value="" style="shape=tableRow;horizontal=0;startSize=0;swimlaneHead=0;swimlaneBody=0;strokeColor=inherit;top=0;left=0;bottom=0;right=0;collapsible=0;dropTarget=0;fillColor=none;points=[[0,0.5],[1,0.5]];portConstraint=eastwest;fontSize=16;" parent="IB-V-Ww0UN4GLWUFu5-M-118" vertex="1">
          <mxGeometry y="30" width="610" height="73" as="geometry" />
        </mxCell>
        <mxCell id="IB-V-Ww0UN4GLWUFu5-M-120" value="Date" style="shape=partialRectangle;html=1;whiteSpace=wrap;connectable=0;strokeColor=inherit;overflow=hidden;fillColor=none;top=0;left=0;bottom=0;right=0;pointerEvents=1;fontSize=16;" parent="IB-V-Ww0UN4GLWUFu5-M-119" vertex="1">
          <mxGeometry width="82" height="73" as="geometry">
            <mxRectangle width="82" height="73" as="alternateBounds" />
          </mxGeometry>
        </mxCell>
        <mxCell id="IB-V-Ww0UN4GLWUFu5-M-121" value="IAR Number" style="shape=partialRectangle;html=1;whiteSpace=wrap;connectable=0;strokeColor=inherit;overflow=hidden;fillColor=none;top=0;left=0;bottom=0;right=0;pointerEvents=1;fontSize=16;" parent="IB-V-Ww0UN4GLWUFu5-M-119" vertex="1">
          <mxGeometry x="82" width="106" height="73" as="geometry">
            <mxRectangle width="106" height="73" as="alternateBounds" />
          </mxGeometry>
        </mxCell>
        <mxCell id="IB-V-Ww0UN4GLWUFu5-M-122" value="Supplier" style="shape=partialRectangle;html=1;whiteSpace=wrap;connectable=0;strokeColor=inherit;overflow=hidden;fillColor=none;top=0;left=0;bottom=0;right=0;pointerEvents=1;fontSize=16;" parent="IB-V-Ww0UN4GLWUFu5-M-119" vertex="1">
          <mxGeometry x="188" width="70" height="73" as="geometry">
            <mxRectangle width="70" height="73" as="alternateBounds" />
          </mxGeometry>
        </mxCell>
        <mxCell id="IB-V-Ww0UN4GLWUFu5-M-123" value="Inspected by" style="shape=partialRectangle;html=1;whiteSpace=wrap;connectable=0;strokeColor=inherit;overflow=hidden;fillColor=none;top=0;left=0;bottom=0;right=0;pointerEvents=1;fontSize=16;" parent="IB-V-Ww0UN4GLWUFu5-M-119" vertex="1">
          <mxGeometry x="258" width="94" height="73" as="geometry">
            <mxRectangle width="94" height="73" as="alternateBounds" />
          </mxGeometry>
        </mxCell>
        <mxCell id="IB-V-Ww0UN4GLWUFu5-M-124" value="Accepted by" style="shape=partialRectangle;html=1;whiteSpace=wrap;connectable=0;strokeColor=inherit;overflow=hidden;fillColor=none;top=0;left=0;bottom=0;right=0;pointerEvents=1;fontSize=16;" parent="IB-V-Ww0UN4GLWUFu5-M-119" vertex="1">
          <mxGeometry x="352" width="94" height="73" as="geometry">
            <mxRectangle width="94" height="73" as="alternateBounds" />
          </mxGeometry>
        </mxCell>
        <mxCell id="IB-V-Ww0UN4GLWUFu5-M-127" value="Last Updated" style="shape=partialRectangle;html=1;whiteSpace=wrap;connectable=0;strokeColor=inherit;overflow=hidden;fillColor=none;top=0;left=0;bottom=0;right=0;pointerEvents=1;fontSize=16;" parent="IB-V-Ww0UN4GLWUFu5-M-119" vertex="1">
          <mxGeometry x="446" width="94" height="73" as="geometry">
            <mxRectangle width="94" height="73" as="alternateBounds" />
          </mxGeometry>
        </mxCell>
        <mxCell id="IB-V-Ww0UN4GLWUFu5-M-128" value="Action" style="shape=partialRectangle;html=1;whiteSpace=wrap;connectable=0;strokeColor=inherit;overflow=hidden;fillColor=none;top=0;left=0;bottom=0;right=0;pointerEvents=1;fontSize=16;" parent="IB-V-Ww0UN4GLWUFu5-M-119" vertex="1">
          <mxGeometry x="540" width="70" height="73" as="geometry">
            <mxRectangle width="70" height="73" as="alternateBounds" />
          </mxGeometry>
        </mxCell>
        <mxCell id="IB-V-Ww0UN4GLWUFu5-M-129" style="shape=tableRow;horizontal=0;startSize=0;swimlaneHead=0;swimlaneBody=0;strokeColor=inherit;top=0;left=0;bottom=0;right=0;collapsible=0;dropTarget=0;fillColor=none;points=[[0,0.5],[1,0.5]];portConstraint=eastwest;fontSize=16;" parent="IB-V-Ww0UN4GLWUFu5-M-118" vertex="1">
          <mxGeometry y="103" width="610" height="73" as="geometry" />
        </mxCell>
        <mxCell id="IB-V-Ww0UN4GLWUFu5-M-130" style="shape=partialRectangle;html=1;whiteSpace=wrap;connectable=0;strokeColor=inherit;overflow=hidden;fillColor=none;top=0;left=0;bottom=0;right=0;pointerEvents=1;fontSize=16;" parent="IB-V-Ww0UN4GLWUFu5-M-129" vertex="1">
          <mxGeometry width="82" height="73" as="geometry">
            <mxRectangle width="82" height="73" as="alternateBounds" />
          </mxGeometry>
        </mxCell>
        <mxCell id="IB-V-Ww0UN4GLWUFu5-M-131" style="shape=partialRectangle;html=1;whiteSpace=wrap;connectable=0;strokeColor=inherit;overflow=hidden;fillColor=none;top=0;left=0;bottom=0;right=0;pointerEvents=1;fontSize=16;" parent="IB-V-Ww0UN4GLWUFu5-M-129" vertex="1">
          <mxGeometry x="82" width="106" height="73" as="geometry">
            <mxRectangle width="106" height="73" as="alternateBounds" />
          </mxGeometry>
        </mxCell>
        <mxCell id="IB-V-Ww0UN4GLWUFu5-M-132" style="shape=partialRectangle;html=1;whiteSpace=wrap;connectable=0;strokeColor=inherit;overflow=hidden;fillColor=none;top=0;left=0;bottom=0;right=0;pointerEvents=1;fontSize=16;" parent="IB-V-Ww0UN4GLWUFu5-M-129" vertex="1">
          <mxGeometry x="188" width="70" height="73" as="geometry">
            <mxRectangle width="70" height="73" as="alternateBounds" />
          </mxGeometry>
        </mxCell>
        <mxCell id="IB-V-Ww0UN4GLWUFu5-M-133" style="shape=partialRectangle;html=1;whiteSpace=wrap;connectable=0;strokeColor=inherit;overflow=hidden;fillColor=none;top=0;left=0;bottom=0;right=0;pointerEvents=1;fontSize=16;" parent="IB-V-Ww0UN4GLWUFu5-M-129" vertex="1">
          <mxGeometry x="258" width="94" height="73" as="geometry">
            <mxRectangle width="94" height="73" as="alternateBounds" />
          </mxGeometry>
        </mxCell>
        <mxCell id="IB-V-Ww0UN4GLWUFu5-M-134" style="shape=partialRectangle;html=1;whiteSpace=wrap;connectable=0;strokeColor=inherit;overflow=hidden;fillColor=none;top=0;left=0;bottom=0;right=0;pointerEvents=1;fontSize=16;" parent="IB-V-Ww0UN4GLWUFu5-M-129" vertex="1">
          <mxGeometry x="352" width="94" height="73" as="geometry">
            <mxRectangle width="94" height="73" as="alternateBounds" />
          </mxGeometry>
        </mxCell>
        <mxCell id="IB-V-Ww0UN4GLWUFu5-M-137" style="shape=partialRectangle;html=1;whiteSpace=wrap;connectable=0;strokeColor=inherit;overflow=hidden;fillColor=none;top=0;left=0;bottom=0;right=0;pointerEvents=1;fontSize=16;" parent="IB-V-Ww0UN4GLWUFu5-M-129" vertex="1">
          <mxGeometry x="446" width="94" height="73" as="geometry">
            <mxRectangle width="94" height="73" as="alternateBounds" />
          </mxGeometry>
        </mxCell>
        <mxCell id="IB-V-Ww0UN4GLWUFu5-M-138" value="Edit&lt;br&gt;Delete" style="shape=partialRectangle;html=1;whiteSpace=wrap;connectable=0;strokeColor=inherit;overflow=hidden;fillColor=none;top=0;left=0;bottom=0;right=0;pointerEvents=1;fontSize=16;" parent="IB-V-Ww0UN4GLWUFu5-M-129" vertex="1">
          <mxGeometry x="540" width="70" height="73" as="geometry">
            <mxRectangle width="70" height="73" as="alternateBounds" />
          </mxGeometry>
        </mxCell>
        <mxCell id="IB-V-Ww0UN4GLWUFu5-M-139" value="" style="shape=rect;fillColor=#F6F6F6;strokeColor=none;" parent="1" vertex="1">
          <mxGeometry x="405" y="510" width="190" height="30" as="geometry" />
        </mxCell>
        <mxCell id="IB-V-Ww0UN4GLWUFu5-M-140" value="" style="html=1;strokeWidth=1;shadow=0;dashed=0;shape=mxgraph.ios7ui.marginRect;rx=3;ry=3;rectMargin=5;fillColor=#E4E4E4;strokeColor=none;" parent="IB-V-Ww0UN4GLWUFu5-M-139" vertex="1">
          <mxGeometry width="190" height="30" as="geometry" />
        </mxCell>
        <mxCell id="IB-V-Ww0UN4GLWUFu5-M-141" value="Search" style="shape=mxgraph.ios7.icons.looking_glass;strokeColor=#878789;fillColor=none;fontColor=#878789;labelPosition=right;verticalLabelPosition=middle;align=left;verticalAlign=middle;fontSize=6;fontStyle=0;spacingTop=2;sketch=0;html=1;" parent="IB-V-Ww0UN4GLWUFu5-M-139" vertex="1">
          <mxGeometry x="0.5" y="0.5" width="6" height="6" relative="1" as="geometry">
            <mxPoint x="-17" y="-3" as="offset" />
          </mxGeometry>
        </mxCell>
        <mxCell id="IB-V-Ww0UN4GLWUFu5-M-150" value="Today" style="rounded=1;arcSize=9;fillColor=#ffffff;align=left;spacingLeft=5;strokeColor=#0057D8;html=1;strokeWidth=2;fontColor=#253858;fontSize=12" parent="1" vertex="1">
          <mxGeometry x="235" y="550" width="150" height="33" as="geometry" />
        </mxCell>
        <mxCell id="IB-V-Ww0UN4GLWUFu5-M-151" value="" style="shape=mxgraph.gmdl.calendar;fillColor=#253858;strokeColor=none" parent="IB-V-Ww0UN4GLWUFu5-M-150" vertex="1">
          <mxGeometry x="1" y="0.5" width="18" height="18" relative="1" as="geometry">
            <mxPoint x="-29" y="-9" as="offset" />
          </mxGeometry>
        </mxCell>
        <mxCell id="IB-V-Ww0UN4GLWUFu5-M-152" value="Filters" style="text;html=1;align=center;verticalAlign=middle;whiteSpace=wrap;rounded=0;" parent="1" vertex="1">
          <mxGeometry x="335" y="510" width="60" height="30" as="geometry" />
        </mxCell>
        <mxCell id="IB-V-Ww0UN4GLWUFu5-M-153" value="" style="sketch=0;aspect=fixed;pointerEvents=1;shadow=0;dashed=0;html=1;strokeColor=none;labelPosition=center;verticalLabelPosition=bottom;verticalAlign=top;align=center;fillColor=#00188D;shape=mxgraph.mscae.enterprise.filter" parent="1" vertex="1">
          <mxGeometry x="334.45" y="520" width="11.11" height="10" as="geometry" />
        </mxCell>
        <mxCell id="IB-V-Ww0UN4GLWUFu5-M-156" value="Create" style="rounded=1;whiteSpace=wrap;html=1;" parent="1" vertex="1">
          <mxGeometry x="600" y="510" width="90" height="30" as="geometry" />
        </mxCell>
        <mxCell id="IB-V-Ww0UN4GLWUFu5-M-157" value="Adjustment Data Table" style="shape=table;startSize=30;container=1;collapsible=0;childLayout=tableLayout;strokeColor=default;fontSize=16;" parent="1" vertex="1">
          <mxGeometry x="850" y="210" width="750" height="176" as="geometry" />
        </mxCell>
        <mxCell id="IB-V-Ww0UN4GLWUFu5-M-158" value="" style="shape=tableRow;horizontal=0;startSize=0;swimlaneHead=0;swimlaneBody=0;strokeColor=inherit;top=0;left=0;bottom=0;right=0;collapsible=0;dropTarget=0;fillColor=none;points=[[0,0.5],[1,0.5]];portConstraint=eastwest;fontSize=16;" parent="IB-V-Ww0UN4GLWUFu5-M-157" vertex="1">
          <mxGeometry y="30" width="750" height="73" as="geometry" />
        </mxCell>
        <mxCell id="IB-V-Ww0UN4GLWUFu5-M-159" value="Code" style="shape=partialRectangle;html=1;whiteSpace=wrap;connectable=0;strokeColor=inherit;overflow=hidden;fillColor=none;top=0;left=0;bottom=0;right=0;pointerEvents=1;fontSize=16;" parent="IB-V-Ww0UN4GLWUFu5-M-158" vertex="1">
          <mxGeometry width="70" height="73" as="geometry">
            <mxRectangle width="70" height="73" as="alternateBounds" />
          </mxGeometry>
        </mxCell>
        <mxCell id="IB-V-Ww0UN4GLWUFu5-M-160" value="Description" style="shape=partialRectangle;html=1;whiteSpace=wrap;connectable=0;strokeColor=inherit;overflow=hidden;fillColor=none;top=0;left=0;bottom=0;right=0;pointerEvents=1;fontSize=16;" parent="IB-V-Ww0UN4GLWUFu5-M-158" vertex="1">
          <mxGeometry x="70" width="90" height="73" as="geometry">
            <mxRectangle width="90" height="73" as="alternateBounds" />
          </mxGeometry>
        </mxCell>
        <mxCell id="IB-V-Ww0UN4GLWUFu5-M-161" value="Type" style="shape=partialRectangle;html=1;whiteSpace=wrap;connectable=0;strokeColor=inherit;overflow=hidden;fillColor=none;top=0;left=0;bottom=0;right=0;pointerEvents=1;fontSize=16;" parent="IB-V-Ww0UN4GLWUFu5-M-158" vertex="1">
          <mxGeometry x="160" width="60" height="73" as="geometry">
            <mxRectangle width="60" height="73" as="alternateBounds" />
          </mxGeometry>
        </mxCell>
        <mxCell id="IB-V-Ww0UN4GLWUFu5-M-162" value="Category" style="shape=partialRectangle;html=1;whiteSpace=wrap;connectable=0;strokeColor=inherit;overflow=hidden;fillColor=none;top=0;left=0;bottom=0;right=0;pointerEvents=1;fontSize=16;" parent="IB-V-Ww0UN4GLWUFu5-M-158" vertex="1">
          <mxGeometry x="220" width="80" height="73" as="geometry">
            <mxRectangle width="80" height="73" as="alternateBounds" />
          </mxGeometry>
        </mxCell>
        <mxCell id="IB-V-Ww0UN4GLWUFu5-M-163" value="Serial" style="shape=partialRectangle;html=1;whiteSpace=wrap;connectable=0;strokeColor=inherit;overflow=hidden;fillColor=none;top=0;left=0;bottom=0;right=0;pointerEvents=1;fontSize=16;" parent="IB-V-Ww0UN4GLWUFu5-M-158" vertex="1">
          <mxGeometry x="300" width="60" height="73" as="geometry">
            <mxRectangle width="60" height="73" as="alternateBounds" />
          </mxGeometry>
        </mxCell>
        <mxCell id="IB-V-Ww0UN4GLWUFu5-M-164" value="Location/&lt;div&gt;Assignment&lt;/div&gt;" style="shape=partialRectangle;html=1;whiteSpace=wrap;connectable=0;strokeColor=inherit;overflow=hidden;fillColor=none;top=0;left=0;bottom=0;right=0;pointerEvents=1;fontSize=16;" parent="IB-V-Ww0UN4GLWUFu5-M-158" vertex="1">
          <mxGeometry x="360" width="90" height="73" as="geometry">
            <mxRectangle width="90" height="73" as="alternateBounds" />
          </mxGeometry>
        </mxCell>
        <mxCell id="IB-V-Ww0UN4GLWUFu5-M-165" value="Date Purchased" style="shape=partialRectangle;html=1;whiteSpace=wrap;connectable=0;strokeColor=inherit;overflow=hidden;fillColor=none;top=0;left=0;bottom=0;right=0;pointerEvents=1;fontSize=16;" parent="IB-V-Ww0UN4GLWUFu5-M-158" vertex="1">
          <mxGeometry x="450" width="80" height="73" as="geometry">
            <mxRectangle width="80" height="73" as="alternateBounds" />
          </mxGeometry>
        </mxCell>
        <mxCell id="IB-V-Ww0UN4GLWUFu5-M-166" value="Last Updated" style="shape=partialRectangle;html=1;whiteSpace=wrap;connectable=0;strokeColor=inherit;overflow=hidden;fillColor=none;top=0;left=0;bottom=0;right=0;pointerEvents=1;fontSize=16;" parent="IB-V-Ww0UN4GLWUFu5-M-158" vertex="1">
          <mxGeometry x="530" width="80" height="73" as="geometry">
            <mxRectangle width="80" height="73" as="alternateBounds" />
          </mxGeometry>
        </mxCell>
        <mxCell id="IB-V-Ww0UN4GLWUFu5-M-193" value="Condition" style="shape=partialRectangle;html=1;whiteSpace=wrap;connectable=0;strokeColor=inherit;overflow=hidden;fillColor=none;top=0;left=0;bottom=0;right=0;pointerEvents=1;fontSize=16;" parent="IB-V-Ww0UN4GLWUFu5-M-158" vertex="1">
          <mxGeometry x="610" width="80" height="73" as="geometry">
            <mxRectangle width="80" height="73" as="alternateBounds" />
          </mxGeometry>
        </mxCell>
        <mxCell id="IB-V-Ww0UN4GLWUFu5-M-167" value="Action" style="shape=partialRectangle;html=1;whiteSpace=wrap;connectable=0;strokeColor=inherit;overflow=hidden;fillColor=none;top=0;left=0;bottom=0;right=0;pointerEvents=1;fontSize=16;" parent="IB-V-Ww0UN4GLWUFu5-M-158" vertex="1">
          <mxGeometry x="690" width="60" height="73" as="geometry">
            <mxRectangle width="60" height="73" as="alternateBounds" />
          </mxGeometry>
        </mxCell>
        <mxCell id="IB-V-Ww0UN4GLWUFu5-M-168" style="shape=tableRow;horizontal=0;startSize=0;swimlaneHead=0;swimlaneBody=0;strokeColor=inherit;top=0;left=0;bottom=0;right=0;collapsible=0;dropTarget=0;fillColor=none;points=[[0,0.5],[1,0.5]];portConstraint=eastwest;fontSize=16;" parent="IB-V-Ww0UN4GLWUFu5-M-157" vertex="1">
          <mxGeometry y="103" width="750" height="73" as="geometry" />
        </mxCell>
        <mxCell id="IB-V-Ww0UN4GLWUFu5-M-169" style="shape=partialRectangle;html=1;whiteSpace=wrap;connectable=0;strokeColor=inherit;overflow=hidden;fillColor=none;top=0;left=0;bottom=0;right=0;pointerEvents=1;fontSize=16;" parent="IB-V-Ww0UN4GLWUFu5-M-168" vertex="1">
          <mxGeometry width="70" height="73" as="geometry">
            <mxRectangle width="70" height="73" as="alternateBounds" />
          </mxGeometry>
        </mxCell>
        <mxCell id="IB-V-Ww0UN4GLWUFu5-M-170" style="shape=partialRectangle;html=1;whiteSpace=wrap;connectable=0;strokeColor=inherit;overflow=hidden;fillColor=none;top=0;left=0;bottom=0;right=0;pointerEvents=1;fontSize=16;" parent="IB-V-Ww0UN4GLWUFu5-M-168" vertex="1">
          <mxGeometry x="70" width="90" height="73" as="geometry">
            <mxRectangle width="90" height="73" as="alternateBounds" />
          </mxGeometry>
        </mxCell>
        <mxCell id="IB-V-Ww0UN4GLWUFu5-M-171" style="shape=partialRectangle;html=1;whiteSpace=wrap;connectable=0;strokeColor=inherit;overflow=hidden;fillColor=none;top=0;left=0;bottom=0;right=0;pointerEvents=1;fontSize=16;" parent="IB-V-Ww0UN4GLWUFu5-M-168" vertex="1">
          <mxGeometry x="160" width="60" height="73" as="geometry">
            <mxRectangle width="60" height="73" as="alternateBounds" />
          </mxGeometry>
        </mxCell>
        <mxCell id="IB-V-Ww0UN4GLWUFu5-M-172" style="shape=partialRectangle;html=1;whiteSpace=wrap;connectable=0;strokeColor=inherit;overflow=hidden;fillColor=none;top=0;left=0;bottom=0;right=0;pointerEvents=1;fontSize=16;" parent="IB-V-Ww0UN4GLWUFu5-M-168" vertex="1">
          <mxGeometry x="220" width="80" height="73" as="geometry">
            <mxRectangle width="80" height="73" as="alternateBounds" />
          </mxGeometry>
        </mxCell>
        <mxCell id="IB-V-Ww0UN4GLWUFu5-M-173" style="shape=partialRectangle;html=1;whiteSpace=wrap;connectable=0;strokeColor=inherit;overflow=hidden;fillColor=none;top=0;left=0;bottom=0;right=0;pointerEvents=1;fontSize=16;" parent="IB-V-Ww0UN4GLWUFu5-M-168" vertex="1">
          <mxGeometry x="300" width="60" height="73" as="geometry">
            <mxRectangle width="60" height="73" as="alternateBounds" />
          </mxGeometry>
        </mxCell>
        <mxCell id="IB-V-Ww0UN4GLWUFu5-M-174" style="shape=partialRectangle;html=1;whiteSpace=wrap;connectable=0;strokeColor=inherit;overflow=hidden;fillColor=none;top=0;left=0;bottom=0;right=0;pointerEvents=1;fontSize=16;" parent="IB-V-Ww0UN4GLWUFu5-M-168" vertex="1">
          <mxGeometry x="360" width="90" height="73" as="geometry">
            <mxRectangle width="90" height="73" as="alternateBounds" />
          </mxGeometry>
        </mxCell>
        <mxCell id="IB-V-Ww0UN4GLWUFu5-M-175" style="shape=partialRectangle;html=1;whiteSpace=wrap;connectable=0;strokeColor=inherit;overflow=hidden;fillColor=none;top=0;left=0;bottom=0;right=0;pointerEvents=1;fontSize=16;" parent="IB-V-Ww0UN4GLWUFu5-M-168" vertex="1">
          <mxGeometry x="450" width="80" height="73" as="geometry">
            <mxRectangle width="80" height="73" as="alternateBounds" />
          </mxGeometry>
        </mxCell>
        <mxCell id="IB-V-Ww0UN4GLWUFu5-M-176" style="shape=partialRectangle;html=1;whiteSpace=wrap;connectable=0;strokeColor=inherit;overflow=hidden;fillColor=none;top=0;left=0;bottom=0;right=0;pointerEvents=1;fontSize=16;" parent="IB-V-Ww0UN4GLWUFu5-M-168" vertex="1">
          <mxGeometry x="530" width="80" height="73" as="geometry">
            <mxRectangle width="80" height="73" as="alternateBounds" />
          </mxGeometry>
        </mxCell>
        <mxCell id="IB-V-Ww0UN4GLWUFu5-M-194" style="shape=partialRectangle;html=1;whiteSpace=wrap;connectable=0;strokeColor=inherit;overflow=hidden;fillColor=none;top=0;left=0;bottom=0;right=0;pointerEvents=1;fontSize=16;" parent="IB-V-Ww0UN4GLWUFu5-M-168" vertex="1">
          <mxGeometry x="610" width="80" height="73" as="geometry">
            <mxRectangle width="80" height="73" as="alternateBounds" />
          </mxGeometry>
        </mxCell>
        <mxCell id="IB-V-Ww0UN4GLWUFu5-M-177" value="Edit&lt;div&gt;Delete&lt;/div&gt;" style="shape=partialRectangle;html=1;whiteSpace=wrap;connectable=0;strokeColor=inherit;overflow=hidden;fillColor=none;top=0;left=0;bottom=0;right=0;pointerEvents=1;fontSize=16;" parent="IB-V-Ww0UN4GLWUFu5-M-168" vertex="1">
          <mxGeometry x="690" width="60" height="73" as="geometry">
            <mxRectangle width="60" height="73" as="alternateBounds" />
          </mxGeometry>
        </mxCell>
        <mxCell id="IB-V-Ww0UN4GLWUFu5-M-178" value="" style="shape=rect;fillColor=#F6F6F6;strokeColor=none;" parent="1" vertex="1">
          <mxGeometry x="1310.55" y="110" width="190" height="30" as="geometry" />
        </mxCell>
        <mxCell id="IB-V-Ww0UN4GLWUFu5-M-179" value="" style="html=1;strokeWidth=1;shadow=0;dashed=0;shape=mxgraph.ios7ui.marginRect;rx=3;ry=3;rectMargin=5;fillColor=#E4E4E4;strokeColor=none;" parent="IB-V-Ww0UN4GLWUFu5-M-178" vertex="1">
          <mxGeometry width="190" height="30" as="geometry" />
        </mxCell>
        <mxCell id="IB-V-Ww0UN4GLWUFu5-M-180" value="Search" style="shape=mxgraph.ios7.icons.looking_glass;strokeColor=#878789;fillColor=none;fontColor=#878789;labelPosition=right;verticalLabelPosition=middle;align=left;verticalAlign=middle;fontSize=6;fontStyle=0;spacingTop=2;sketch=0;html=1;" parent="IB-V-Ww0UN4GLWUFu5-M-178" vertex="1">
          <mxGeometry x="0.5" y="0.5" width="6" height="6" relative="1" as="geometry">
            <mxPoint x="-17" y="-3" as="offset" />
          </mxGeometry>
        </mxCell>
        <mxCell id="IB-V-Ww0UN4GLWUFu5-M-181" value="Type" style="rounded=1;fillColor=#F1F2F4;strokeColor=none;html=1;whiteSpace=wrap;fontColor=#596780;align=left;fontSize=12;spacingLeft=10;sketch=0;" parent="1" vertex="1">
          <mxGeometry x="860" y="160" width="110" height="33" as="geometry" />
        </mxCell>
        <mxCell id="IB-V-Ww0UN4GLWUFu5-M-182" value="" style="shape=triangle;direction=south;fillColor=#596780;strokeColor=none;html=1;sketch=0;" parent="IB-V-Ww0UN4GLWUFu5-M-181" vertex="1">
          <mxGeometry x="1" y="0.5" width="12" height="6" relative="1" as="geometry">
            <mxPoint x="-20" y="-3" as="offset" />
          </mxGeometry>
        </mxCell>
        <mxCell id="IB-V-Ww0UN4GLWUFu5-M-183" value="Category" style="rounded=1;fillColor=#F1F2F4;strokeColor=none;html=1;whiteSpace=wrap;fontColor=#596780;align=left;fontSize=12;spacingLeft=10;sketch=0;" parent="1" vertex="1">
          <mxGeometry x="980" y="160" width="110" height="33" as="geometry" />
        </mxCell>
        <mxCell id="IB-V-Ww0UN4GLWUFu5-M-184" value="" style="shape=triangle;direction=south;fillColor=#596780;strokeColor=none;html=1;sketch=0;" parent="IB-V-Ww0UN4GLWUFu5-M-183" vertex="1">
          <mxGeometry x="1" y="0.5" width="12" height="6" relative="1" as="geometry">
            <mxPoint x="-20" y="-3" as="offset" />
          </mxGeometry>
        </mxCell>
        <mxCell id="IB-V-Ww0UN4GLWUFu5-M-185" value="Location" style="rounded=1;fillColor=#F1F2F4;strokeColor=none;html=1;whiteSpace=wrap;fontColor=#596780;align=left;fontSize=12;spacingLeft=10;sketch=0;" parent="1" vertex="1">
          <mxGeometry x="1100" y="160" width="110" height="33" as="geometry" />
        </mxCell>
        <mxCell id="IB-V-Ww0UN4GLWUFu5-M-186" value="" style="shape=triangle;direction=south;fillColor=#596780;strokeColor=none;html=1;sketch=0;" parent="IB-V-Ww0UN4GLWUFu5-M-185" vertex="1">
          <mxGeometry x="1" y="0.5" width="12" height="6" relative="1" as="geometry">
            <mxPoint x="-20" y="-3" as="offset" />
          </mxGeometry>
        </mxCell>
        <mxCell id="IB-V-Ww0UN4GLWUFu5-M-187" value="Assignment" style="rounded=1;fillColor=#F1F2F4;strokeColor=none;html=1;whiteSpace=wrap;fontColor=#596780;align=left;fontSize=12;spacingLeft=10;sketch=0;" parent="1" vertex="1">
          <mxGeometry x="1220" y="160" width="110" height="33" as="geometry" />
        </mxCell>
        <mxCell id="IB-V-Ww0UN4GLWUFu5-M-188" value="" style="shape=triangle;direction=south;fillColor=#596780;strokeColor=none;html=1;sketch=0;" parent="IB-V-Ww0UN4GLWUFu5-M-187" vertex="1">
          <mxGeometry x="1" y="0.5" width="12" height="6" relative="1" as="geometry">
            <mxPoint x="-20" y="-3" as="offset" />
          </mxGeometry>
        </mxCell>
        <mxCell id="IB-V-Ww0UN4GLWUFu5-M-189" value="Today" style="rounded=1;arcSize=9;fillColor=#ffffff;align=left;spacingLeft=5;strokeColor=#0057D8;html=1;strokeWidth=2;fontColor=#253858;fontSize=12" parent="1" vertex="1">
          <mxGeometry x="1460" y="160" width="150" height="33" as="geometry" />
        </mxCell>
        <mxCell id="IB-V-Ww0UN4GLWUFu5-M-190" value="" style="shape=mxgraph.gmdl.calendar;fillColor=#253858;strokeColor=none" parent="IB-V-Ww0UN4GLWUFu5-M-189" vertex="1">
          <mxGeometry x="1" y="0.5" width="18" height="18" relative="1" as="geometry">
            <mxPoint x="-29" y="-9" as="offset" />
          </mxGeometry>
        </mxCell>
        <mxCell id="IB-V-Ww0UN4GLWUFu5-M-191" value="Filters" style="text;html=1;align=center;verticalAlign=middle;whiteSpace=wrap;rounded=0;" parent="1" vertex="1">
          <mxGeometry x="1240.55" y="110" width="60" height="30" as="geometry" />
        </mxCell>
        <mxCell id="IB-V-Ww0UN4GLWUFu5-M-192" value="" style="sketch=0;aspect=fixed;pointerEvents=1;shadow=0;dashed=0;html=1;strokeColor=none;labelPosition=center;verticalLabelPosition=bottom;verticalAlign=top;align=center;fillColor=#00188D;shape=mxgraph.mscae.enterprise.filter" parent="1" vertex="1">
          <mxGeometry x="1240" y="120" width="11.11" height="10" as="geometry" />
        </mxCell>
        <mxCell id="IB-V-Ww0UN4GLWUFu5-M-199" value="Condition" style="rounded=1;fillColor=#F1F2F4;strokeColor=none;html=1;whiteSpace=wrap;fontColor=#596780;align=left;fontSize=12;spacingLeft=10;sketch=0;" parent="1" vertex="1">
          <mxGeometry x="1340" y="160" width="110" height="33" as="geometry" />
        </mxCell>
        <mxCell id="IB-V-Ww0UN4GLWUFu5-M-200" value="" style="shape=triangle;direction=south;fillColor=#596780;strokeColor=none;html=1;sketch=0;" parent="IB-V-Ww0UN4GLWUFu5-M-199" vertex="1">
          <mxGeometry x="1" y="0.5" width="12" height="6" relative="1" as="geometry">
            <mxPoint x="-20" y="-3" as="offset" />
          </mxGeometry>
        </mxCell>
        <mxCell id="IB-V-Ww0UN4GLWUFu5-M-241" style="edgeStyle=orthogonalEdgeStyle;rounded=0;orthogonalLoop=1;jettySize=auto;html=1;exitX=1;exitY=0.5;exitDx=0;exitDy=0;entryX=0.5;entryY=0;entryDx=0;entryDy=0;" parent="1" source="IB-V-Ww0UN4GLWUFu5-M-201" target="IB-V-Ww0UN4GLWUFu5-M-218" edge="1">
          <mxGeometry relative="1" as="geometry">
            <mxPoint x="1225" y="480" as="targetPoint" />
            <Array as="points">
              <mxPoint x="1630" y="125" />
              <mxPoint x="1630" y="420" />
              <mxPoint x="1225" y="420" />
            </Array>
          </mxGeometry>
        </mxCell>
        <mxCell id="IB-V-Ww0UN4GLWUFu5-M-201" value="New Adjustment" style="rounded=1;whiteSpace=wrap;html=1;" parent="1" vertex="1">
          <mxGeometry x="1510" y="110" width="100" height="30" as="geometry" />
        </mxCell>
        <mxCell id="IB-V-Ww0UN4GLWUFu5-M-218" value="Adjustment List" style="shape=table;startSize=30;container=1;collapsible=0;childLayout=tableLayout;strokeColor=default;fontSize=16;" parent="1" vertex="1">
          <mxGeometry x="955" y="510" width="614" height="176" as="geometry" />
        </mxCell>
        <mxCell id="IB-V-Ww0UN4GLWUFu5-M-219" value="" style="shape=tableRow;horizontal=0;startSize=0;swimlaneHead=0;swimlaneBody=0;strokeColor=inherit;top=0;left=0;bottom=0;right=0;collapsible=0;dropTarget=0;fillColor=none;points=[[0,0.5],[1,0.5]];portConstraint=eastwest;fontSize=16;" parent="IB-V-Ww0UN4GLWUFu5-M-218" vertex="1">
          <mxGeometry y="30" width="614" height="73" as="geometry" />
        </mxCell>
        <mxCell id="-ZKMenebAdKtarGmZmU6-1" value="Checkbox" style="shape=partialRectangle;html=1;whiteSpace=wrap;connectable=0;strokeColor=inherit;overflow=hidden;fillColor=none;top=0;left=0;bottom=0;right=0;pointerEvents=1;fontSize=16;" vertex="1" parent="IB-V-Ww0UN4GLWUFu5-M-219">
          <mxGeometry width="74" height="73" as="geometry">
            <mxRectangle width="74" height="73" as="alternateBounds" />
          </mxGeometry>
        </mxCell>
        <mxCell id="IB-V-Ww0UN4GLWUFu5-M-220" value="Code" style="shape=partialRectangle;html=1;whiteSpace=wrap;connectable=0;strokeColor=inherit;overflow=hidden;fillColor=none;top=0;left=0;bottom=0;right=0;pointerEvents=1;fontSize=16;" parent="IB-V-Ww0UN4GLWUFu5-M-219" vertex="1">
          <mxGeometry x="74" width="74" height="73" as="geometry">
            <mxRectangle width="74" height="73" as="alternateBounds" />
          </mxGeometry>
        </mxCell>
        <mxCell id="IB-V-Ww0UN4GLWUFu5-M-221" value="Description" style="shape=partialRectangle;html=1;whiteSpace=wrap;connectable=0;strokeColor=inherit;overflow=hidden;fillColor=none;top=0;left=0;bottom=0;right=0;pointerEvents=1;fontSize=16;" parent="IB-V-Ww0UN4GLWUFu5-M-219" vertex="1">
          <mxGeometry x="148" width="95" height="73" as="geometry">
            <mxRectangle width="95" height="73" as="alternateBounds" />
          </mxGeometry>
        </mxCell>
        <mxCell id="IB-V-Ww0UN4GLWUFu5-M-222" value="Type" style="shape=partialRectangle;html=1;whiteSpace=wrap;connectable=0;strokeColor=inherit;overflow=hidden;fillColor=none;top=0;left=0;bottom=0;right=0;pointerEvents=1;fontSize=16;" parent="IB-V-Ww0UN4GLWUFu5-M-219" vertex="1">
          <mxGeometry x="243" width="64" height="73" as="geometry">
            <mxRectangle width="64" height="73" as="alternateBounds" />
          </mxGeometry>
        </mxCell>
        <mxCell id="IB-V-Ww0UN4GLWUFu5-M-224" value="Serial" style="shape=partialRectangle;html=1;whiteSpace=wrap;connectable=0;strokeColor=inherit;overflow=hidden;fillColor=none;top=0;left=0;bottom=0;right=0;pointerEvents=1;fontSize=16;" parent="IB-V-Ww0UN4GLWUFu5-M-219" vertex="1">
          <mxGeometry x="307" width="63" height="73" as="geometry">
            <mxRectangle width="63" height="73" as="alternateBounds" />
          </mxGeometry>
        </mxCell>
        <mxCell id="IB-V-Ww0UN4GLWUFu5-M-225" value="Quantity" style="shape=partialRectangle;html=1;whiteSpace=wrap;connectable=0;strokeColor=inherit;overflow=hidden;fillColor=none;top=0;left=0;bottom=0;right=0;pointerEvents=1;fontSize=16;" parent="IB-V-Ww0UN4GLWUFu5-M-219" vertex="1">
          <mxGeometry x="370" width="96" height="73" as="geometry">
            <mxRectangle width="96" height="73" as="alternateBounds" />
          </mxGeometry>
        </mxCell>
        <mxCell id="IB-V-Ww0UN4GLWUFu5-M-228" value="Condition" style="shape=partialRectangle;html=1;whiteSpace=wrap;connectable=0;strokeColor=inherit;overflow=hidden;fillColor=none;top=0;left=0;bottom=0;right=0;pointerEvents=1;fontSize=16;" parent="IB-V-Ww0UN4GLWUFu5-M-219" vertex="1">
          <mxGeometry x="466" width="68" height="73" as="geometry">
            <mxRectangle width="68" height="73" as="alternateBounds" />
          </mxGeometry>
        </mxCell>
        <mxCell id="IB-V-Ww0UN4GLWUFu5-M-229" value="Action" style="shape=partialRectangle;html=1;whiteSpace=wrap;connectable=0;strokeColor=inherit;overflow=hidden;fillColor=none;top=0;left=0;bottom=0;right=0;pointerEvents=1;fontSize=16;" parent="IB-V-Ww0UN4GLWUFu5-M-219" vertex="1">
          <mxGeometry x="534" width="80" height="73" as="geometry">
            <mxRectangle width="80" height="73" as="alternateBounds" />
          </mxGeometry>
        </mxCell>
        <mxCell id="IB-V-Ww0UN4GLWUFu5-M-230" style="shape=tableRow;horizontal=0;startSize=0;swimlaneHead=0;swimlaneBody=0;strokeColor=inherit;top=0;left=0;bottom=0;right=0;collapsible=0;dropTarget=0;fillColor=none;points=[[0,0.5],[1,0.5]];portConstraint=eastwest;fontSize=16;" parent="IB-V-Ww0UN4GLWUFu5-M-218" vertex="1">
          <mxGeometry y="103" width="614" height="73" as="geometry" />
        </mxCell>
        <mxCell id="-ZKMenebAdKtarGmZmU6-2" style="shape=partialRectangle;html=1;whiteSpace=wrap;connectable=0;strokeColor=inherit;overflow=hidden;fillColor=none;top=0;left=0;bottom=0;right=0;pointerEvents=1;fontSize=16;" vertex="1" parent="IB-V-Ww0UN4GLWUFu5-M-230">
          <mxGeometry width="74" height="73" as="geometry">
            <mxRectangle width="74" height="73" as="alternateBounds" />
          </mxGeometry>
        </mxCell>
        <mxCell id="IB-V-Ww0UN4GLWUFu5-M-231" style="shape=partialRectangle;html=1;whiteSpace=wrap;connectable=0;strokeColor=inherit;overflow=hidden;fillColor=none;top=0;left=0;bottom=0;right=0;pointerEvents=1;fontSize=16;" parent="IB-V-Ww0UN4GLWUFu5-M-230" vertex="1">
          <mxGeometry x="74" width="74" height="73" as="geometry">
            <mxRectangle width="74" height="73" as="alternateBounds" />
          </mxGeometry>
        </mxCell>
        <mxCell id="IB-V-Ww0UN4GLWUFu5-M-232" style="shape=partialRectangle;html=1;whiteSpace=wrap;connectable=0;strokeColor=inherit;overflow=hidden;fillColor=none;top=0;left=0;bottom=0;right=0;pointerEvents=1;fontSize=16;" parent="IB-V-Ww0UN4GLWUFu5-M-230" vertex="1">
          <mxGeometry x="148" width="95" height="73" as="geometry">
            <mxRectangle width="95" height="73" as="alternateBounds" />
          </mxGeometry>
        </mxCell>
        <mxCell id="IB-V-Ww0UN4GLWUFu5-M-233" style="shape=partialRectangle;html=1;whiteSpace=wrap;connectable=0;strokeColor=inherit;overflow=hidden;fillColor=none;top=0;left=0;bottom=0;right=0;pointerEvents=1;fontSize=16;" parent="IB-V-Ww0UN4GLWUFu5-M-230" vertex="1">
          <mxGeometry x="243" width="64" height="73" as="geometry">
            <mxRectangle width="64" height="73" as="alternateBounds" />
          </mxGeometry>
        </mxCell>
        <mxCell id="IB-V-Ww0UN4GLWUFu5-M-235" style="shape=partialRectangle;html=1;whiteSpace=wrap;connectable=0;strokeColor=inherit;overflow=hidden;fillColor=none;top=0;left=0;bottom=0;right=0;pointerEvents=1;fontSize=16;" parent="IB-V-Ww0UN4GLWUFu5-M-230" vertex="1">
          <mxGeometry x="307" width="63" height="73" as="geometry">
            <mxRectangle width="63" height="73" as="alternateBounds" />
          </mxGeometry>
        </mxCell>
        <mxCell id="IB-V-Ww0UN4GLWUFu5-M-236" style="shape=partialRectangle;html=1;whiteSpace=wrap;connectable=0;strokeColor=inherit;overflow=hidden;fillColor=none;top=0;left=0;bottom=0;right=0;pointerEvents=1;fontSize=16;" parent="IB-V-Ww0UN4GLWUFu5-M-230" vertex="1">
          <mxGeometry x="370" width="96" height="73" as="geometry">
            <mxRectangle width="96" height="73" as="alternateBounds" />
          </mxGeometry>
        </mxCell>
        <mxCell id="IB-V-Ww0UN4GLWUFu5-M-239" style="shape=partialRectangle;html=1;whiteSpace=wrap;connectable=0;strokeColor=inherit;overflow=hidden;fillColor=none;top=0;left=0;bottom=0;right=0;pointerEvents=1;fontSize=16;" parent="IB-V-Ww0UN4GLWUFu5-M-230" vertex="1">
          <mxGeometry x="466" width="68" height="73" as="geometry">
            <mxRectangle width="68" height="73" as="alternateBounds" />
          </mxGeometry>
        </mxCell>
        <mxCell id="IB-V-Ww0UN4GLWUFu5-M-240" value="Edit&lt;br&gt;Remove" style="shape=partialRectangle;html=1;whiteSpace=wrap;connectable=0;strokeColor=inherit;overflow=hidden;fillColor=none;top=0;left=0;bottom=0;right=0;pointerEvents=1;fontSize=16;" parent="IB-V-Ww0UN4GLWUFu5-M-230" vertex="1">
          <mxGeometry x="534" width="80" height="73" as="geometry">
            <mxRectangle width="80" height="73" as="alternateBounds" />
          </mxGeometry>
        </mxCell>
        <mxCell id="IB-V-Ww0UN4GLWUFu5-M-242" value="Add Item" style="rounded=1;whiteSpace=wrap;html=1;" parent="1" vertex="1">
          <mxGeometry x="1469" y="470" width="100" height="30" as="geometry" />
        </mxCell>
        <mxCell id="-ZKMenebAdKtarGmZmU6-10" value="Products" style="shape=table;startSize=30;container=1;collapsible=0;childLayout=tableLayout;strokeColor=default;fontSize=16;" vertex="1" parent="1">
          <mxGeometry x="70" y="960" width="974" height="173" as="geometry" />
        </mxCell>
        <mxCell id="-ZKMenebAdKtarGmZmU6-11" value="" style="shape=tableRow;horizontal=0;startSize=0;swimlaneHead=0;swimlaneBody=0;strokeColor=inherit;top=0;left=0;bottom=0;right=0;collapsible=0;dropTarget=0;fillColor=none;points=[[0,0.5],[1,0.5]];portConstraint=eastwest;fontSize=16;" vertex="1" parent="-ZKMenebAdKtarGmZmU6-10">
          <mxGeometry y="30" width="974" height="70" as="geometry" />
        </mxCell>
        <mxCell id="-ZKMenebAdKtarGmZmU6-33" value="Checkbox" style="shape=partialRectangle;html=1;whiteSpace=wrap;connectable=0;strokeColor=inherit;overflow=hidden;fillColor=none;top=0;left=0;bottom=0;right=0;pointerEvents=1;fontSize=16;" vertex="1" parent="-ZKMenebAdKtarGmZmU6-11">
          <mxGeometry width="82" height="70" as="geometry">
            <mxRectangle width="82" height="70" as="alternateBounds" />
          </mxGeometry>
        </mxCell>
        <mxCell id="-ZKMenebAdKtarGmZmU6-12" value="Barcode" style="shape=partialRectangle;html=1;whiteSpace=wrap;connectable=0;strokeColor=inherit;overflow=hidden;fillColor=none;top=0;left=0;bottom=0;right=0;pointerEvents=1;fontSize=16;" vertex="1" parent="-ZKMenebAdKtarGmZmU6-11">
          <mxGeometry x="82" width="82" height="70" as="geometry">
            <mxRectangle width="82" height="70" as="alternateBounds" />
          </mxGeometry>
        </mxCell>
        <mxCell id="-ZKMenebAdKtarGmZmU6-13" value="Description" style="shape=partialRectangle;html=1;whiteSpace=wrap;connectable=0;strokeColor=inherit;overflow=hidden;fillColor=none;top=0;left=0;bottom=0;right=0;pointerEvents=1;fontSize=16;" vertex="1" parent="-ZKMenebAdKtarGmZmU6-11">
          <mxGeometry x="164" width="106" height="70" as="geometry">
            <mxRectangle width="106" height="70" as="alternateBounds" />
          </mxGeometry>
        </mxCell>
        <mxCell id="-ZKMenebAdKtarGmZmU6-14" value="Type" style="shape=partialRectangle;html=1;whiteSpace=wrap;connectable=0;strokeColor=inherit;overflow=hidden;fillColor=none;top=0;left=0;bottom=0;right=0;pointerEvents=1;fontSize=16;" vertex="1" parent="-ZKMenebAdKtarGmZmU6-11">
          <mxGeometry x="270" width="70" height="70" as="geometry">
            <mxRectangle width="70" height="70" as="alternateBounds" />
          </mxGeometry>
        </mxCell>
        <mxCell id="-ZKMenebAdKtarGmZmU6-15" value="Category" style="shape=partialRectangle;html=1;whiteSpace=wrap;connectable=0;strokeColor=inherit;overflow=hidden;fillColor=none;top=0;left=0;bottom=0;right=0;pointerEvents=1;fontSize=16;" vertex="1" parent="-ZKMenebAdKtarGmZmU6-11">
          <mxGeometry x="340" width="94" height="70" as="geometry">
            <mxRectangle width="94" height="70" as="alternateBounds" />
          </mxGeometry>
        </mxCell>
        <mxCell id="-ZKMenebAdKtarGmZmU6-16" value="Brand" style="shape=partialRectangle;html=1;whiteSpace=wrap;connectable=0;strokeColor=inherit;overflow=hidden;fillColor=none;top=0;left=0;bottom=0;right=0;pointerEvents=1;fontSize=16;" vertex="1" parent="-ZKMenebAdKtarGmZmU6-11">
          <mxGeometry x="434" width="94" height="70" as="geometry">
            <mxRectangle width="94" height="70" as="alternateBounds" />
          </mxGeometry>
        </mxCell>
        <mxCell id="-ZKMenebAdKtarGmZmU6-17" value="Unit" style="shape=partialRectangle;html=1;whiteSpace=wrap;connectable=0;strokeColor=inherit;overflow=hidden;fillColor=none;top=0;left=0;bottom=0;right=0;pointerEvents=1;fontSize=16;" vertex="1" parent="-ZKMenebAdKtarGmZmU6-11">
          <mxGeometry x="528" width="94" height="70" as="geometry">
            <mxRectangle width="94" height="70" as="alternateBounds" />
          </mxGeometry>
        </mxCell>
        <mxCell id="-ZKMenebAdKtarGmZmU6-29" value="Estimated Life" style="shape=partialRectangle;html=1;whiteSpace=wrap;connectable=0;strokeColor=inherit;overflow=hidden;fillColor=none;top=0;left=0;bottom=0;right=0;pointerEvents=1;fontSize=16;" vertex="1" parent="-ZKMenebAdKtarGmZmU6-11">
          <mxGeometry x="622" width="94" height="70" as="geometry">
            <mxRectangle width="94" height="70" as="alternateBounds" />
          </mxGeometry>
        </mxCell>
        <mxCell id="-ZKMenebAdKtarGmZmU6-27" value="Date Created" style="shape=partialRectangle;html=1;whiteSpace=wrap;connectable=0;strokeColor=inherit;overflow=hidden;fillColor=none;top=0;left=0;bottom=0;right=0;pointerEvents=1;fontSize=16;" vertex="1" parent="-ZKMenebAdKtarGmZmU6-11">
          <mxGeometry x="716" width="94" height="70" as="geometry">
            <mxRectangle width="94" height="70" as="alternateBounds" />
          </mxGeometry>
        </mxCell>
        <mxCell id="-ZKMenebAdKtarGmZmU6-31" value="Last Updated" style="shape=partialRectangle;html=1;whiteSpace=wrap;connectable=0;strokeColor=inherit;overflow=hidden;fillColor=none;top=0;left=0;bottom=0;right=0;pointerEvents=1;fontSize=16;" vertex="1" parent="-ZKMenebAdKtarGmZmU6-11">
          <mxGeometry x="810" width="94" height="70" as="geometry">
            <mxRectangle width="94" height="70" as="alternateBounds" />
          </mxGeometry>
        </mxCell>
        <mxCell id="-ZKMenebAdKtarGmZmU6-18" value="Action" style="shape=partialRectangle;html=1;whiteSpace=wrap;connectable=0;strokeColor=inherit;overflow=hidden;fillColor=none;top=0;left=0;bottom=0;right=0;pointerEvents=1;fontSize=16;" vertex="1" parent="-ZKMenebAdKtarGmZmU6-11">
          <mxGeometry x="904" width="70" height="70" as="geometry">
            <mxRectangle width="70" height="70" as="alternateBounds" />
          </mxGeometry>
        </mxCell>
        <mxCell id="-ZKMenebAdKtarGmZmU6-19" style="shape=tableRow;horizontal=0;startSize=0;swimlaneHead=0;swimlaneBody=0;strokeColor=inherit;top=0;left=0;bottom=0;right=0;collapsible=0;dropTarget=0;fillColor=none;points=[[0,0.5],[1,0.5]];portConstraint=eastwest;fontSize=16;" vertex="1" parent="-ZKMenebAdKtarGmZmU6-10">
          <mxGeometry y="100" width="974" height="73" as="geometry" />
        </mxCell>
        <mxCell id="-ZKMenebAdKtarGmZmU6-34" style="shape=partialRectangle;html=1;whiteSpace=wrap;connectable=0;strokeColor=inherit;overflow=hidden;fillColor=none;top=0;left=0;bottom=0;right=0;pointerEvents=1;fontSize=16;" vertex="1" parent="-ZKMenebAdKtarGmZmU6-19">
          <mxGeometry width="82" height="73" as="geometry">
            <mxRectangle width="82" height="73" as="alternateBounds" />
          </mxGeometry>
        </mxCell>
        <mxCell id="-ZKMenebAdKtarGmZmU6-20" style="shape=partialRectangle;html=1;whiteSpace=wrap;connectable=0;strokeColor=inherit;overflow=hidden;fillColor=none;top=0;left=0;bottom=0;right=0;pointerEvents=1;fontSize=16;" vertex="1" parent="-ZKMenebAdKtarGmZmU6-19">
          <mxGeometry x="82" width="82" height="73" as="geometry">
            <mxRectangle width="82" height="73" as="alternateBounds" />
          </mxGeometry>
        </mxCell>
        <mxCell id="-ZKMenebAdKtarGmZmU6-21" style="shape=partialRectangle;html=1;whiteSpace=wrap;connectable=0;strokeColor=inherit;overflow=hidden;fillColor=none;top=0;left=0;bottom=0;right=0;pointerEvents=1;fontSize=16;" vertex="1" parent="-ZKMenebAdKtarGmZmU6-19">
          <mxGeometry x="164" width="106" height="73" as="geometry">
            <mxRectangle width="106" height="73" as="alternateBounds" />
          </mxGeometry>
        </mxCell>
        <mxCell id="-ZKMenebAdKtarGmZmU6-22" style="shape=partialRectangle;html=1;whiteSpace=wrap;connectable=0;strokeColor=inherit;overflow=hidden;fillColor=none;top=0;left=0;bottom=0;right=0;pointerEvents=1;fontSize=16;" vertex="1" parent="-ZKMenebAdKtarGmZmU6-19">
          <mxGeometry x="270" width="70" height="73" as="geometry">
            <mxRectangle width="70" height="73" as="alternateBounds" />
          </mxGeometry>
        </mxCell>
        <mxCell id="-ZKMenebAdKtarGmZmU6-23" style="shape=partialRectangle;html=1;whiteSpace=wrap;connectable=0;strokeColor=inherit;overflow=hidden;fillColor=none;top=0;left=0;bottom=0;right=0;pointerEvents=1;fontSize=16;" vertex="1" parent="-ZKMenebAdKtarGmZmU6-19">
          <mxGeometry x="340" width="94" height="73" as="geometry">
            <mxRectangle width="94" height="73" as="alternateBounds" />
          </mxGeometry>
        </mxCell>
        <mxCell id="-ZKMenebAdKtarGmZmU6-24" style="shape=partialRectangle;html=1;whiteSpace=wrap;connectable=0;strokeColor=inherit;overflow=hidden;fillColor=none;top=0;left=0;bottom=0;right=0;pointerEvents=1;fontSize=16;" vertex="1" parent="-ZKMenebAdKtarGmZmU6-19">
          <mxGeometry x="434" width="94" height="73" as="geometry">
            <mxRectangle width="94" height="73" as="alternateBounds" />
          </mxGeometry>
        </mxCell>
        <mxCell id="-ZKMenebAdKtarGmZmU6-25" style="shape=partialRectangle;html=1;whiteSpace=wrap;connectable=0;strokeColor=inherit;overflow=hidden;fillColor=none;top=0;left=0;bottom=0;right=0;pointerEvents=1;fontSize=16;" vertex="1" parent="-ZKMenebAdKtarGmZmU6-19">
          <mxGeometry x="528" width="94" height="73" as="geometry">
            <mxRectangle width="94" height="73" as="alternateBounds" />
          </mxGeometry>
        </mxCell>
        <mxCell id="-ZKMenebAdKtarGmZmU6-30" style="shape=partialRectangle;html=1;whiteSpace=wrap;connectable=0;strokeColor=inherit;overflow=hidden;fillColor=none;top=0;left=0;bottom=0;right=0;pointerEvents=1;fontSize=16;" vertex="1" parent="-ZKMenebAdKtarGmZmU6-19">
          <mxGeometry x="622" width="94" height="73" as="geometry">
            <mxRectangle width="94" height="73" as="alternateBounds" />
          </mxGeometry>
        </mxCell>
        <mxCell id="-ZKMenebAdKtarGmZmU6-28" style="shape=partialRectangle;html=1;whiteSpace=wrap;connectable=0;strokeColor=inherit;overflow=hidden;fillColor=none;top=0;left=0;bottom=0;right=0;pointerEvents=1;fontSize=16;" vertex="1" parent="-ZKMenebAdKtarGmZmU6-19">
          <mxGeometry x="716" width="94" height="73" as="geometry">
            <mxRectangle width="94" height="73" as="alternateBounds" />
          </mxGeometry>
        </mxCell>
        <mxCell id="-ZKMenebAdKtarGmZmU6-32" style="shape=partialRectangle;html=1;whiteSpace=wrap;connectable=0;strokeColor=inherit;overflow=hidden;fillColor=none;top=0;left=0;bottom=0;right=0;pointerEvents=1;fontSize=16;" vertex="1" parent="-ZKMenebAdKtarGmZmU6-19">
          <mxGeometry x="810" width="94" height="73" as="geometry">
            <mxRectangle width="94" height="73" as="alternateBounds" />
          </mxGeometry>
        </mxCell>
        <mxCell id="-ZKMenebAdKtarGmZmU6-26" value="Edit&lt;br&gt;Delete" style="shape=partialRectangle;html=1;whiteSpace=wrap;connectable=0;strokeColor=inherit;overflow=hidden;fillColor=none;top=0;left=0;bottom=0;right=0;pointerEvents=1;fontSize=16;" vertex="1" parent="-ZKMenebAdKtarGmZmU6-19">
          <mxGeometry x="904" width="70" height="73" as="geometry">
            <mxRectangle width="70" height="73" as="alternateBounds" />
          </mxGeometry>
        </mxCell>
        <mxCell id="-ZKMenebAdKtarGmZmU6-35" value="Add" style="rounded=1;whiteSpace=wrap;html=1;arcSize=0;" vertex="1" parent="1">
          <mxGeometry x="955" y="870" width="90" height="30" as="geometry" />
        </mxCell>
        <mxCell id="-ZKMenebAdKtarGmZmU6-38" value="" style="shape=rect;fillColor=#F6F6F6;strokeColor=none;" vertex="1" parent="1">
          <mxGeometry x="760" y="870" width="190" height="30" as="geometry" />
        </mxCell>
        <mxCell id="-ZKMenebAdKtarGmZmU6-39" value="" style="html=1;strokeWidth=1;shadow=0;dashed=0;shape=mxgraph.ios7ui.marginRect;rx=3;ry=3;rectMargin=5;fillColor=#E4E4E4;strokeColor=none;" vertex="1" parent="-ZKMenebAdKtarGmZmU6-38">
          <mxGeometry width="190" height="30" as="geometry" />
        </mxCell>
        <mxCell id="-ZKMenebAdKtarGmZmU6-40" value="Search" style="shape=mxgraph.ios7.icons.looking_glass;strokeColor=#878789;fillColor=none;fontColor=#878789;labelPosition=right;verticalLabelPosition=middle;align=left;verticalAlign=middle;fontSize=6;fontStyle=0;spacingTop=2;sketch=0;html=1;" vertex="1" parent="-ZKMenebAdKtarGmZmU6-38">
          <mxGeometry x="0.5" y="0.5" width="6" height="6" relative="1" as="geometry">
            <mxPoint x="-17" y="-3" as="offset" />
          </mxGeometry>
        </mxCell>
        <mxCell id="-ZKMenebAdKtarGmZmU6-41" value="Filters" style="text;html=1;align=center;verticalAlign=middle;whiteSpace=wrap;rounded=0;" vertex="1" parent="1">
          <mxGeometry x="690.55" y="870" width="60" height="30" as="geometry" />
        </mxCell>
        <mxCell id="-ZKMenebAdKtarGmZmU6-42" value="" style="sketch=0;aspect=fixed;pointerEvents=1;shadow=0;dashed=0;html=1;strokeColor=none;labelPosition=center;verticalLabelPosition=bottom;verticalAlign=top;align=center;fillColor=#00188D;shape=mxgraph.mscae.enterprise.filter" vertex="1" parent="1">
          <mxGeometry x="690" y="880" width="11.11" height="10" as="geometry" />
        </mxCell>
        <mxCell id="-ZKMenebAdKtarGmZmU6-43" value="Type" style="rounded=1;fillColor=#F1F2F4;strokeColor=none;html=1;whiteSpace=wrap;fontColor=#596780;align=left;fontSize=12;spacingLeft=10;sketch=0;" vertex="1" parent="1">
          <mxGeometry x="695" y="920" width="110" height="33" as="geometry" />
        </mxCell>
        <mxCell id="-ZKMenebAdKtarGmZmU6-44" value="" style="shape=triangle;direction=south;fillColor=#596780;strokeColor=none;html=1;sketch=0;" vertex="1" parent="-ZKMenebAdKtarGmZmU6-43">
          <mxGeometry x="1" y="0.5" width="12" height="6" relative="1" as="geometry">
            <mxPoint x="-20" y="-3" as="offset" />
          </mxGeometry>
        </mxCell>
        <mxCell id="-ZKMenebAdKtarGmZmU6-45" value="Category" style="rounded=1;fillColor=#F1F2F4;strokeColor=none;html=1;whiteSpace=wrap;fontColor=#596780;align=left;fontSize=12;spacingLeft=10;sketch=0;" vertex="1" parent="1">
          <mxGeometry x="815" y="920" width="110" height="33" as="geometry" />
        </mxCell>
        <mxCell id="-ZKMenebAdKtarGmZmU6-46" value="" style="shape=triangle;direction=south;fillColor=#596780;strokeColor=none;html=1;sketch=0;" vertex="1" parent="-ZKMenebAdKtarGmZmU6-45">
          <mxGeometry x="1" y="0.5" width="12" height="6" relative="1" as="geometry">
            <mxPoint x="-20" y="-3" as="offset" />
          </mxGeometry>
        </mxCell>
        <mxCell id="-ZKMenebAdKtarGmZmU6-47" value="Brand" style="rounded=1;fillColor=#F1F2F4;strokeColor=none;html=1;whiteSpace=wrap;fontColor=#596780;align=left;fontSize=12;spacingLeft=10;sketch=0;" vertex="1" parent="1">
          <mxGeometry x="935" y="920" width="110" height="33" as="geometry" />
        </mxCell>
        <mxCell id="-ZKMenebAdKtarGmZmU6-48" value="" style="shape=triangle;direction=south;fillColor=#596780;strokeColor=none;html=1;sketch=0;" vertex="1" parent="-ZKMenebAdKtarGmZmU6-47">
          <mxGeometry x="1" y="0.5" width="12" height="6" relative="1" as="geometry">
            <mxPoint x="-20" y="-3" as="offset" />
          </mxGeometry>
        </mxCell>
        <mxCell id="-ZKMenebAdKtarGmZmU6-49" value="Delete" style="rounded=1;whiteSpace=wrap;html=1;arcSize=0;" vertex="1" parent="1">
          <mxGeometry x="70" y="890" width="90" height="30" as="geometry" />
        </mxCell>
        <mxCell id="-ZKMenebAdKtarGmZmU6-51" value="Show Deleted" style="rounded=1;whiteSpace=wrap;html=1;arcSize=0;" vertex="1" parent="1">
          <mxGeometry x="170" y="890" width="90" height="30" as="geometry" />
        </mxCell>
      </root>
    </mxGraphModel>
  </diagram>
</mxfile>
